<svg 
          width="20" 
          height="20" fill="none" 
          xmlns="http://www.w3.org/2000/svg">
          <path d="M 18 0 L 2 0 C 1.4695670008659363 4.440892098500626e-16 0.960859090089798 0.21071359515190125 0.5857863426208496 0.5857863426208496 C 0.21071359515190125 0.960859090089798 4.440892098500626e-16 1.4695670008659363 0 2 L 0 20 L 4 16 L 18 16 C 18.530432999134064 16 19.039140433073044 15.78928592801094 19.414213180541992 15.414213180541992 C 19.78928592801094 15.039140433073044 20 14.530432999134064 20 14 L 20 2 C 20 1.4695670008659363 19.78928592801094 0.960859090089798 19.414213180541992 0.5857863426208496 C 19.039140433073044 0.21071359515190125 18.530432999134064 4.440892098500626e-16 18 0 Z M 4 7 L 16 7 L 16 9 L 4 9 M 12 12 L 4 12 L 4 10 L 12 10 M 16 6 L 4 6 L 4 4 L 16 4" fill="rgb(27.000000290572643,27.000000290572643,27.000000290572643)"/>
        </svg>